<svg width="24.000000" height="24.000000" viewBox="0 0 24 24" fill="none" xmlns="http://www.w3.org/2000/svg" xmlns:xlink="http://www.w3.org/1999/xlink">
	<desc>
			Created with Pixso.
	</desc>
	<defs>
		<clipPath id="clip347_616">
			<rect id="solar:tag-price-bold" rx="0" width="23.000000" height="23.000000" transform="translate(0.500000 0.500000)" fill="white" fill-opacity="0"/>
		</clipPath>
	</defs>
	<rect id="solar:tag-price-bold" rx="0" width="23.000000" height="23.000000" transform="translate(0.500000 0.500000)" fill="#FFFFFF" fill-opacity="0"/>
	<g clip-path="url(#clip347_616)">
		<path id="Vector" d="M16.13 4.72L17.96 6.55C20.65 9.24 21.99 10.59 21.99 12.26C21.99 13.93 20.65 15.27 17.96 17.96C15.27 20.65 13.93 22 12.26 22C10.59 22 9.24 20.65 6.55 17.96L4.72 16.13C3.18 14.59 2.4 13.81 2.12 12.81C1.83 11.81 2.08 10.74 2.57 8.61L2.85 7.39C3.26 5.59 3.47 4.7 4.08 4.08C4.7 3.47 5.59 3.26 7.39 2.85L8.61 2.57C10.74 2.08 11.81 1.83 12.81 2.12C13.81 2.41 14.59 3.18 16.13 4.72ZM11.14 14.32C10.47 13.65 10.47 12.69 10.88 11.92C10.78 11.78 10.73 11.6 10.75 11.43C10.76 11.25 10.84 11.09 10.96 10.96C11.08 10.84 11.25 10.76 11.42 10.75C11.6 10.73 11.77 10.78 11.92 10.87C12.26 10.69 12.63 10.6 13 10.6C13.2 10.6 13.39 10.68 13.53 10.83C13.67 10.97 13.75 11.16 13.74 11.36C13.74 11.56 13.66 11.75 13.52 11.89C13.38 12.03 13.19 12.1 12.99 12.1C12.76 12.11 12.54 12.21 12.38 12.38C11.99 12.77 12.09 13.15 12.2 13.26C12.31 13.37 12.7 13.47 13.08 13.09C13.87 12.3 15.22 12.04 16.09 12.91C16.76 13.58 16.76 14.55 16.35 15.31C16.45 15.46 16.5 15.63 16.48 15.81C16.47 15.98 16.39 16.14 16.27 16.27C16.15 16.39 15.98 16.47 15.81 16.48C15.63 16.5 15.46 16.46 15.31 16.36C14.87 16.6 14.35 16.69 13.84 16.59C13.65 16.55 13.48 16.43 13.37 16.27C13.26 16.1 13.22 15.9 13.26 15.7C13.3 15.51 13.41 15.34 13.58 15.23C13.75 15.12 13.95 15.08 14.14 15.12C14.32 15.16 14.61 15.1 14.85 14.85C15.24 14.47 15.14 14.08 15.03 13.97C14.92 13.86 14.53 13.76 14.15 14.15C13.36 14.93 12.01 15.19 11.14 14.32ZM10.01 10.29C10.2 10.1 10.35 9.88 10.45 9.64C10.55 9.4 10.6 9.14 10.6 8.87C10.6 8.61 10.55 8.35 10.45 8.11C10.35 7.87 10.2 7.65 10.01 7.46C9.83 7.27 9.61 7.13 9.37 7.03C9.12 6.93 8.86 6.87 8.6 6.87C8.34 6.87 8.08 6.93 7.83 7.03C7.59 7.13 7.37 7.27 7.19 7.46C6.81 7.84 6.6 8.34 6.6 8.87C6.6 9.41 6.81 9.91 7.19 10.29C7.56 10.66 8.07 10.87 8.6 10.87C9.13 10.87 9.64 10.66 10.01 10.29Z" fill="#FCFCFC" fill-opacity="1.000000" fill-rule="evenodd"/>
	</g>
</svg>
