<svg width="13.000000" height="15.000000" viewBox="0 0 13 15" fill="none" xmlns="http://www.w3.org/2000/svg" xmlns:xlink="http://www.w3.org/1999/xlink">
	<desc>
			Created with Pixso.
	</desc>
	<defs/>
	<path id="Vector" d="M-0.45 8.59L6 15L12.44 8.59C12.51 8.53 12.57 8.46 12.62 8.37C12.66 8.29 12.69 8.2 12.7 8.1C12.7 8 12.69 7.91 12.66 7.82C12.62 7.73 12.57 7.65 12.5 7.58C12.43 7.52 12.35 7.46 12.26 7.43C12.17 7.4 12.07 7.39 11.98 7.39C11.89 7.4 11.79 7.43 11.71 7.47C11.62 7.52 11.55 7.58 11.5 7.66L6.66 12.46L6.66 -0.3C6.66 -0.47 6.59 -0.64 6.47 -0.77C6.34 -0.89 6.17 -0.96 6 -0.96C5.82 -0.96 5.65 -0.89 5.52 -0.77C5.4 -0.64 5.33 -0.47 5.33 -0.3L5.33 12.46L0.5 7.66C0.37 7.54 0.2 7.47 0.02 7.47C-0.15 7.47 -0.32 7.54 -0.45 7.66C-0.57 7.79 -0.64 7.96 -0.64 8.14C-0.64 8.31 -0.57 8.48 -0.45 8.61L-0.45 8.59Z" fill="#515267" fill-opacity="1.000000" fill-rule="nonzero"/>
</svg>
