<svg width="40.000000" height="40.000000" viewBox="0 0 40 40" fill="none" xmlns="http://www.w3.org/2000/svg" xmlns:xlink="http://www.w3.org/1999/xlink">
	<desc>
			Created with Pixso.
	</desc>
	<defs>
		<clipPath id="clip3949_11">
			<rect id="fluent:send-48-filled" rx="0.500000" width="39.000000" height="39.000000" transform="translate(0.500000 0.500000)" fill="white" fill-opacity="0"/>
		</clipPath>
	</defs>
	<rect id="fluent:send-48-filled" rx="0.500000" width="39.000000" height="39.000000" transform="translate(0.500000 0.500000)" fill="#FFFFFF" fill-opacity="0"/>
	<g clip-path="url(#clip3949_11)">
		<path id="Vector" d="M6.05 3.53C4.56 2.79 2.91 4.21 3.43 5.79L6.77 16.04C6.87 16.33 7.04 16.59 7.27 16.79C7.5 16.99 7.78 17.12 8.08 17.17L21.3 19.37C22 19.49 22 20.49 21.3 20.61L8.08 22.81C7.78 22.86 7.5 22.99 7.27 23.19C7.04 23.39 6.87 23.65 6.77 23.94L3.43 34.2C2.91 35.78 4.56 37.2 6.05 36.46L35.63 21.67C37.01 20.98 37.01 19.01 35.63 18.32L6.05 3.53Z" fill="#FCFCFC" fill-opacity="1.000000" fill-rule="nonzero"/>
	</g>
</svg>
