<svg width="30" height="30" viewBox="0 0 30 30" fill="none" xmlns="http://www.w3.org/2000/svg">
<path d="M15 5.03535C15 4.37415 14.8703 3.71943 14.6184 3.10856C14.3664 2.4977 13.9972 1.94265 13.5316 1.47511C13.0661 1.00758 12.5134 0.636707 11.9052 0.383678C11.2969 0.130649 10.645 0.000416694 9.98665 0.000416694H5.07785C4.41411 -0.00815954 3.75529 0.115727 3.1396 0.364887C2.52392 0.614047 1.96363 0.983521 1.49125 1.45187C1.01887 1.92022 0.643806 2.47812 0.387813 3.09319C0.131821 3.70827 0 4.36828 0 5.03493C0 5.70158 0.131821 6.36159 0.387813 6.97667C0.643806 7.59174 1.01887 8.14964 1.49125 8.61799C1.96363 9.08634 2.52392 9.45581 3.1396 9.70497C3.75529 9.95413 4.41411 10.078 5.07785 10.0694H6.0387V12.5002C6.0387 12.5002 15 11.2853 15 5.03535ZM10.4364 18.3335C10.4364 20.1751 8.95112 21.6668 7.11737 21.6668C5.28362 21.6668 3.79837 20.1751 3.79837 18.3335C3.79837 16.4919 5.28362 15.0002 7.11737 15.0002C8.95112 15.0002 10.4364 16.4919 10.4364 18.3335ZM7.11737 23.3334C4.76337 23.3334 0.0644955 24.5251 0.0644955 26.8892V30H14.1702V26.8892C14.1702 24.5242 9.47137 23.3334 7.11737 23.3334ZM22.8826 21.6668C24.7164 21.6668 26.2016 20.1751 26.2016 18.3335C26.2016 16.4919 24.7164 15.0002 22.8826 15.0002C21.0489 15.0002 19.5636 16.4919 19.5636 18.3335C19.5636 20.1751 21.0489 21.6668 22.8826 21.6668ZM22.8826 23.3334C20.5286 23.3334 15.8298 24.5251 15.8298 26.8892V30H29.9355V26.8892C29.9355 24.5242 25.2366 23.3334 22.8826 23.3334ZM21.6729 0.833739C20.3432 0.833739 19.0681 1.3642 18.1279 2.30844C17.1877 3.25267 16.6595 4.53332 16.6595 5.86867C16.6595 12.1186 24.6251 13.3336 24.6251 13.3336V10.9028H24.9222C25.5859 10.9113 26.2447 10.7875 26.8604 10.5383C27.4761 10.2891 28.0364 9.91966 28.5087 9.45131C28.9811 8.98296 29.3562 8.42506 29.6122 7.80999C29.8682 7.19491 30 6.5349 30 5.86825C30 5.2016 29.8682 4.54159 29.6122 3.92652C29.3562 3.31144 28.9811 2.75354 28.5087 2.28519C28.0364 1.81684 27.4761 1.44737 26.8604 1.19821C26.2447 0.949048 25.5859 0.825162 24.9222 0.833739H21.6729Z" fill="#FCFCFC"/>
</svg>
