<?xml version="1.0" standalone="no"?>
<!DOCTYPE svg PUBLIC "-//W3C//DTD SVG 20010904//EN"
 "http://www.w3.org/TR/2001/REC-SVG-20010904/DTD/svg10.dtd">
<svg version="1.0" xmlns="http://www.w3.org/2000/svg"
 width="512.000000pt" height="512.000000pt" viewBox="0 0 512.000000 512.000000"
 preserveAspectRatio="xMidYMid meet">

<g transform="translate(0.000000,512.000000) scale(0.100000,-0.100000)"
fill="#000000" stroke="none">
<path d="M388 5086 c-204 -55 -279 -309 -138 -470 37 -41 107 -81 163 -91 l37
-7 0 -1153 0 -1153 -49 -12 c-137 -33 -223 -141 -223 -282 0 -118 61 -211 171
-262 45 -21 58 -21 904 -26 l858 -5 -406 -662 c-358 -584 -406 -667 -412 -712
-8 -68 16 -130 69 -175 81 -69 191 -68 267 3 25 23 155 227 357 556 174 286
329 538 343 560 l26 40 5 -486 5 -486 27 -36 c41 -53 84 -80 139 -85 72 -7
111 4 159 45 76 66 74 51 80 572 l5 464 339 -554 c217 -356 352 -567 377 -591
136 -126 358 -12 336 173 -6 45 -54 128 -412 712 l-406 662 858 5 c844 5 859
5 903 26 93 43 151 116 168 211 27 151 -61 289 -209 330 l-59 16 0 1153 0
1152 37 7 c134 25 234 142 234 275 1 141 -82 252 -213 287 -75 19 -4268 18
-4340 -1z m4339 -107 c134 -50 152 -247 30 -327 l-41 -27 -2155 0 -2156 0 -38
23 c-98 61 -117 202 -39 286 56 59 -97 55 2229 56 1490 0 2150 -3 2170 -11z
m-159 -1616 l2 -1153 -2010 0 -2010 0 0 1148 c0 632 3 1152 7 1155 3 4 907 6
2007 5 l2001 -3 3 -1152z m135 -1264 c47 -13 106 -63 123 -106 18 -41 18 -105
0 -146 -16 -39 -76 -94 -114 -104 -35 -10 -4269 -10 -4304 0 -38 10 -98 65
-114 104 -30 70 -12 154 44 206 63 60 -78 56 2217 57 1443 0 2122 -3 2148 -11z
m-2343 -562 l0 -94 -321 -524 c-177 -288 -352 -573 -388 -632 -85 -140 -102
-157 -156 -157 -69 0 -119 63 -98 124 4 13 194 328 422 700 l415 676 63 0 63
0 0 -93z m300 -571 c0 -653 0 -664 -20 -689 -26 -32 -79 -44 -121 -27 -62 26
-59 -9 -59 717 l0 663 100 0 100 0 0 -664z m634 -1 c224 -366 415 -679 423
-696 13 -25 13 -38 4 -69 -26 -86 -135 -96 -187 -17 -11 18 -188 305 -392 638
l-372 606 0 101 0 102 58 0 58 0 408 -665z"/>
<path d="M936 4194 c-9 -8 -16 -24 -16 -34 0 -10 7 -26 16 -34 13 -14 63 -16
388 -16 276 0 375 3 384 12 7 7 12 24 12 38 0 14 -5 31 -12 38 -9 9 -108 12
-384 12 -325 0 -375 -2 -388 -16z"/>
<path d="M3954 4185 c-15 -23 -15 -27 0 -50 14 -21 24 -24 87 -27 l71 -3 -246
-265 c-136 -146 -250 -266 -255 -268 -4 -1 -140 101 -302 228 -162 126 -303
230 -314 230 -24 0 -645 -600 -660 -637 -13 -34 5 -58 43 -58 27 0 69 37 327
289 270 263 297 287 313 274 9 -8 143 -113 296 -233 196 -153 286 -217 304
-217 16 0 35 11 51 30 14 17 134 146 266 287 l240 257 3 -58 c2 -36 9 -66 19
-76 19 -21 54 -23 71 -6 17 17 17 299 0 316 -8 8 -57 12 -155 12 -141 0 -143
0 -159 -25z"/>
<path d="M932 3858 c-18 -18 -15 -53 6 -71 17 -15 58 -17 383 -17 378 0 388 1
402 41 3 9 -1 26 -9 38 -15 21 -20 21 -393 21 -280 0 -380 -3 -389 -12z"/>
<path d="M3995 3765 c-62 -31 -60 -2 -63 -675 -2 -571 -1 -617 15 -650 28 -54
49 -60 226 -60 l159 0 34 34 34 34 0 629 c0 690 3 655 -60 688 -41 21 -302 21
-345 0z m303 -687 l2 -598 -130 0 -130 0 0 600 0 601 128 -3 127 -3 3 -597z"/>
<path d="M2944 3616 c-67 -29 -64 -2 -64 -616 0 -511 2 -557 18 -576 31 -39
55 -44 212 -44 160 0 198 9 220 49 6 13 10 213 10 573 0 614 3 585 -66 614
-45 19 -286 19 -330 0z m296 -616 l0 -520 -130 0 -130 0 0 520 0 520 130 0
130 0 0 -520z"/>
<path d="M937 3522 c-20 -22 -22 -53 -5 -70 9 -9 83 -12 269 -12 251 0 258 1
273 21 8 12 12 29 9 38 -14 39 -29 41 -283 41 -227 0 -248 -2 -263 -18z"/>
<path d="M3483 3273 c-12 -2 -34 -18 -48 -34 l-25 -31 0 -379 c0 -242 4 -387
10 -400 22 -40 61 -49 219 -49 95 0 160 4 176 12 54 24 55 35 55 440 0 414 1
406 -66 434 -32 13 -263 18 -321 7z m287 -448 l0 -345 -130 0 -130 0 0 345 0
345 130 0 130 0 0 -345z"/>
<path d="M932 3188 c-17 -17 -15 -54 4 -72 13 -14 52 -16 269 -16 l255 0 16
25 c15 23 15 27 0 50 l-16 25 -258 0 c-187 0 -261 -3 -270 -12z"/>
<path d="M2401 3086 c-48 -27 -50 -41 -51 -349 l0 -289 34 -34 34 -34 158 0
c185 0 215 10 233 77 6 22 11 144 11 291 0 362 7 352 -235 352 -113 -1 -167
-5 -184 -14z m309 -346 l0 -260 -130 0 -130 0 0 260 0 260 130 0 130 0 0 -260z"/>
</g>
</svg>
