<svg width="22.000000" height="22.000000" viewBox="0 0 22 22" fill="none" xmlns="http://www.w3.org/2000/svg" xmlns:xlink="http://www.w3.org/1999/xlink">
	<desc>
			Created with Pixso.
	</desc>
	<defs/>
	<path id="Vector" d="M11 3.69C11 3.2 10.9 2.72 10.71 2.27C10.53 1.83 10.26 1.42 9.92 1.08C9.58 0.73 9.17 0.46 8.73 0.28C8.28 0.09 7.8 0 7.32 0L3.72 0C3.23 -0.01 2.75 0.08 2.3 0.26C1.85 0.45 1.44 0.72 1.09 1.06C0.74 1.4 0.47 1.81 0.28 2.26C0.09 2.71 0 3.2 0 3.69C0 4.18 0.09 4.66 0.28 5.11C0.47 5.56 0.74 5.97 1.09 6.32C1.44 6.66 1.85 6.93 2.3 7.11C2.75 7.29 3.23 7.39 3.72 7.38L4.42 7.38L4.42 9.16C4.42 9.16 11 8.27 11 3.69ZM7.65 13.44C7.65 14.79 6.56 15.88 5.21 15.88C3.87 15.88 2.78 14.79 2.78 13.44C2.78 12.09 3.87 11 5.21 11C6.56 11 7.65 12.09 7.65 13.44ZM5.21 17.11C3.49 17.11 0.04 17.98 0.04 19.71L0.04 22L10.39 22L10.39 19.71C10.39 17.98 6.94 17.11 5.21 17.11ZM16.78 15.88C18.12 15.88 19.21 14.79 19.21 13.44C19.21 12.09 18.12 11 16.78 11C15.43 11 14.34 12.09 14.34 13.44C14.34 14.79 15.43 15.88 16.78 15.88ZM16.78 17.11C15.05 17.11 11.6 17.98 11.6 19.71L11.6 22L21.95 22L21.95 19.71C21.95 17.98 18.5 17.11 16.78 17.11ZM15.89 0.61C14.91 0.61 13.98 1 13.29 1.69C12.6 2.38 12.21 3.32 12.21 4.3C12.21 8.88 18.05 9.77 18.05 9.77L18.05 7.99L18.27 7.99C18.76 8 19.24 7.91 19.69 7.72C20.14 7.54 20.55 7.27 20.9 6.93C21.25 6.58 21.52 6.17 21.71 5.72C21.9 5.27 22 4.79 22 4.3C22 3.81 21.9 3.33 21.71 2.87C21.52 2.42 21.25 2.01 20.9 1.67C20.55 1.33 20.14 1.06 19.69 0.87C19.24 0.69 18.76 0.6 18.27 0.61L15.89 0.61Z" fill="#515267" fill-opacity="1.000000" fill-rule="nonzero"/>
</svg>
