<svg width="32.000000" height="32.000000" viewBox="0 0 32 32" fill="none" xmlns="http://www.w3.org/2000/svg" xmlns:xlink="http://www.w3.org/1999/xlink">
	<desc>
			Created with Pixso.
	</desc>
	<defs>
		<clipPath id="clip3946_308">
			<rect id="pajamas:close" rx="15.500000" width="31.000000" height="31.000000" transform="translate(0.500000 0.500000)" fill="white" fill-opacity="0"/>
		</clipPath>
	</defs>
	<path id="pajamas:close" d="M0 0L16 0C24.83 0 32 7.16 32 16L32 32L8 32C3.58 32 0 28.41 0 24L0 0Z" fill="#FFFFFF" fill-opacity="0" fill-rule="evenodd"/>
	<g clip-path="url(#clip3946_308)">
		<path id="Vector" d="M8.58 6.4C8.3 6.13 7.92 5.99 7.54 6C7.15 6 6.78 6.16 6.51 6.43C6.23 6.71 6.08 7.08 6.07 7.47C6.06 7.86 6.21 8.23 6.47 8.52L13.88 15.96L6.47 23.4C6.32 23.53 6.21 23.7 6.12 23.88C6.04 24.07 6 24.27 6 24.47C5.99 24.67 6.03 24.87 6.1 25.06C6.18 25.24 6.29 25.41 6.43 25.56C6.57 25.7 6.74 25.81 6.93 25.89C7.12 25.96 7.32 26 7.52 25.99C7.72 25.99 7.91 25.95 8.1 25.87C8.28 25.78 8.45 25.67 8.58 25.52L16 18.08L23.41 25.52C23.54 25.67 23.71 25.78 23.89 25.87C24.08 25.95 24.27 25.99 24.47 25.99C24.67 26 24.87 25.96 25.06 25.89C25.25 25.81 25.42 25.7 25.56 25.56C25.7 25.41 25.81 25.24 25.89 25.06C25.96 24.87 26 24.67 25.99 24.47C25.99 24.27 25.95 24.07 25.87 23.88C25.78 23.7 25.67 23.53 25.52 23.4L18.11 15.96L25.52 8.52C25.78 8.23 25.93 7.86 25.92 7.47C25.91 7.08 25.76 6.71 25.48 6.43C25.21 6.16 24.84 6 24.45 6C24.07 5.99 23.69 6.13 23.41 6.4L16 13.84L8.58 6.4Z" fill="#515267" fill-opacity="1.000000" fill-rule="evenodd"/>
	</g>
</svg>
