<svg width="30.000000" height="30.000000" viewBox="0 0 30 30" fill="none" xmlns="http://www.w3.org/2000/svg" xmlns:xlink="http://www.w3.org/1999/xlink">
	<desc>
			Created with Pixso.
	</desc>
	<defs/>
	<path id="Vector" d="M15 5.03C15 4.37 14.87 3.71 14.61 3.1C14.36 2.49 13.99 1.94 13.53 1.47C13.06 1 12.51 0.63 11.9 0.38C11.29 0.13 10.64 0 9.98 0L5.07 0C4.41 -0.01 3.75 0.11 3.14 0.36C2.52 0.61 1.96 0.98 1.49 1.45C1.01 1.91 0.64 2.47 0.38 3.09C0.13 3.7 0 4.36 0 5.03C0 5.7 0.13 6.36 0.38 6.97C0.64 7.59 1.01 8.14 1.49 8.61C1.96 9.08 2.52 9.45 3.14 9.7C3.75 9.95 4.41 10.07 5.07 10.06L6.03 10.06L6.03 12.5C6.03 12.5 15 11.28 15 5.03ZM10.43 18.33C10.43 20.17 8.94 21.66 7.11 21.66C5.28 21.66 3.79 20.17 3.79 18.33C3.79 16.49 5.28 15 7.11 15C8.94 15 10.43 16.49 10.43 18.33ZM7.11 23.33C4.76 23.33 0.06 24.52 0.06 26.88L0.06 30L14.17 30L14.17 26.88C14.17 24.52 9.47 23.33 7.11 23.33ZM22.88 21.66C24.71 21.66 26.2 20.17 26.2 18.33C26.2 16.49 24.71 15 22.88 15C21.05 15 19.56 16.49 19.56 18.33C19.56 20.17 21.05 21.66 22.88 21.66ZM22.88 23.33C20.52 23.33 15.82 24.52 15.82 26.88L15.82 30L29.93 30L29.93 26.88C29.93 24.52 25.23 23.33 22.88 23.33ZM21.67 0.83C20.34 0.83 19.06 1.36 18.12 2.3C17.18 3.25 16.66 4.53 16.66 5.86C16.66 12.11 24.62 13.33 24.62 13.33L24.62 10.9L24.92 10.9C25.58 10.91 26.24 10.78 26.85 10.53C27.47 10.28 28.03 9.91 28.5 9.45C28.98 8.98 29.35 8.42 29.61 7.8C29.86 7.19 30 6.53 30 5.86C30 5.2 29.86 4.54 29.61 3.92C29.35 3.31 28.98 2.75 28.5 2.28C28.03 1.81 27.47 1.44 26.85 1.19C26.24 0.94 25.58 0.82 24.92 0.83L21.67 0.83Z" fill="#515267" fill-opacity="1.000000" fill-rule="nonzero"/>
</svg>
